<?xml version="1.0" encoding="UTF-8"?>
<!DOCTYPE svg PUBLIC "-//W3C//DTD SVG 1.1//EN" "http://www.w3.org/Graphics/SVG/1.1/DTD/svg11.dtd">
<!-- Creator: CorelDRAW 2019 (64-Bit) -->
<svg xmlns="http://www.w3.org/2000/svg" xml:space="preserve" width="50mm" height="50mm" version="1.1" style="shape-rendering:geometricPrecision; text-rendering:geometricPrecision; image-rendering:optimizeQuality; fill-rule:evenodd; clip-rule:evenodd"
viewBox="0 0 5000 5000"
 xmlns:xlink="http://www.w3.org/1999/xlink">
 <defs>
  <style type="text/css">
   <![CDATA[
    .str0 {stroke:#FEFEFE;stroke-width:20;stroke-miterlimit:22.9256}
    .fil0 {fill:#FEFEFE}
   ]]>
  </style>
 </defs>
 <g id="Capa_x0020_1">
  <metadata id="CorelCorpID_0Corel-Layer"/>
  <path class="fil0 str0" d="M1420.03 1955.58c-410.88,17.95 -628.01,248.89 -629.53,665.44 -1.57,431.8 4.23,865.41 5.38,1297.5 2.96,1101.67 375.39,932.05 1657.92,926.66 1870.47,-7.86 1716.73,233.44 1702.75,-2196.84 -2.57,-447.31 -195.49,-672.3 -630.74,-701.41 -56.91,-438.38 65.09,-896.11 -141.64,-1259.23 -151.54,-266.18 -468.37,-532.07 -903.69,-536.68 -441.92,-4.67 -760.02,252.63 -917.66,522.19 -226.34,387.03 -112.62,814.47 -142.79,1282.37zm-122.66 292.94c-327.03,110.17 -234.55,506.4 -232.47,1061.46 1.17,315.47 -74.38,1019.72 119.7,1190.06 153.44,134.67 941.17,74.13 1216.28,72.93 1646.59,-7.2 1490.86,190.47 1486.59,-1077.78 -0.99,-295.14 75.86,-1024.49 -111.4,-1189.34 -187.67,-165.23 -929.88,-82.11 -1216.44,-81.18 -220.72,0.72 -1127.87,-21.42 -1262.26,23.85zm403.68 -300.11l1536.51 3.03c29.12,-233.83 26.51,-867.26 -56.23,-1061.46 -269.04,-631.45 -1156.14,-604.94 -1417.44,-16.49 -97.81,220.24 -85.73,797.51 -62.84,1074.92zm615.26 1731.98l-143.09 365.57 605.86 2.75 -135.6 -367.79c85.19,-118.28 283.87,-157.97 229.46,-470.42 -105.04,-603.17 -1067.73,-267.69 -742.42,290.91 63.79,109.53 117.93,101.9 185.79,178.98z"/>
 </g>
</svg>
