<?xml version="1.0" encoding="UTF-8"?>
<!DOCTYPE svg PUBLIC "-//W3C//DTD SVG 1.1//EN" "http://www.w3.org/Graphics/SVG/1.1/DTD/svg11.dtd">
<!-- Creator: CorelDRAW 2019 (64-Bit) -->
<svg xmlns="http://www.w3.org/2000/svg" xml:space="preserve" width="50mm" height="50mm" version="1.1" style="shape-rendering:geometricPrecision; text-rendering:geometricPrecision; image-rendering:optimizeQuality; fill-rule:evenodd; clip-rule:evenodd"
viewBox="0 0 5000 5000"
 xmlns:xlink="http://www.w3.org/1999/xlink">
 <defs>
  <style type="text/css">
   <![CDATA[
    .str0 {stroke:#FEFEFE;stroke-width:20;stroke-miterlimit:22.9256}
    .fil0 {fill:#FEFEFE}
   ]]>
  </style>
 </defs>
 <g id="Capa_x0020_1">
  <metadata id="CorelCorpID_0Corel-Layer"/>
  <path class="fil0 str0" d="M1968.05 4840.92c40.75,-15.16 21.71,-3.47 48.5,-21.84 39.73,-59.21 15.63,-1620.6 18.5,-1829.01 79.62,-31.64 859.21,-22.17 989.31,-11.7l-0.02 1617.56c0.15,55.8 -23.58,180.92 29.82,208.01 -26.03,-135.6 -14.22,-1382.07 -9.82,-1721.9 0.14,-11.34 1.26,-49.44 0.32,-58.22 -2.54,-23.87 1.75,-3.75 -4.29,-26.7 -7.83,-29.78 -3.87,-17.1 -16.1,-34.04 -18.49,-12.99 -995.74,-32.32 -1000.99,12.54l-12.33 34.67c-29.03,170.5 36.07,1696.82 -20.57,1797.14 -2.05,3.63 -4.81,7.3 -6.84,10.62l-15.49 22.87zm1217.09 -2008.55c54.57,242.47 -25.55,1444.29 14.78,1831.49 88.01,42.45 478.12,17.9 601.7,17.92 129.47,0.02 506.56,21.29 603.3,-17.02l6.4 -2389.78c-2.28,-91.58 4.17,-17.21 -25.82,-46.13l7.3 2425.47c-131.77,10.06 -1100.37,16.5 -1174.76,-6.15l-0.52 -1767.72c-11.34,-87.32 2.63,-20.45 -32.38,-48.08zm-1994.7 -1582.48c150.75,-110.35 289.08,-212.1 437.82,-325.77l871.8 -645.21c59.83,-23.48 383.54,241.19 443.89,287.64 149.98,115.46 292.55,219.02 439.15,325.08 66.27,47.95 136.74,101.12 214.12,160.05 360.97,274.83 281.76,73.7 296.5,-304.24l335.78 4.99 -0.01 643.2c-0.01,148.59 -15.74,115.06 221.01,288.34 66.67,48.81 231.35,157.3 284.47,216.21 7.22,83.95 -14.33,255.12 124.55,205.37 76.12,-27.26 55.51,-201.62 45.02,-291.87 -158.3,-141.77 -351.77,-253.91 -505.89,-389.22 -7.71,-157.92 -1.28,-330.41 -1.47,-490.14 -0.28,-250.77 40.33,-359.65 -119.84,-359.69 -632.71,-0.19 -558.91,-63.01 -559.98,333.23 -82.96,-20.99 -785.23,-563.19 -898.81,-648.67 -293.19,-220.67 -255.83,-245.6 -469.19,-84.4l-2091.47 1553.79c-37.41,26.42 -68.14,56.51 -104.61,79.73 -4.43,52.14 -6.35,97.83 -6.29,150.14 0.02,16.86 0.33,56.13 3.37,71.26l18.79 43.46c39.79,50.8 78.32,38.46 127.44,12.27 26.37,-55.57 16.79,-113.29 19.79,-186.41l874.06 -649.14zm777.61 3591.03l15.49 -22.87c2.03,-3.32 4.79,-6.99 6.84,-10.62 56.64,-100.32 -8.46,-1626.64 20.57,-1797.14l12.33 -34.67c5.25,-44.86 982.5,-25.53 1000.99,-12.54 12.23,16.94 8.27,4.26 16.1,34.04 6.04,22.95 1.75,2.83 4.29,26.7 0.94,8.78 -0.18,46.88 -0.32,58.22 -4.4,339.83 -16.21,1586.3 9.82,1721.9 82.45,54.29 594.72,28.39 733.05,28.39 150.41,0 658.57,19.91 755.29,-14.72 59.35,-105.53 26.23,-597.91 26.23,-769.48l0 -1556.91c0.08,-106.56 28.61,-294.08 -30.74,-361.21l-1565.09 -1160.5c-100.96,-72.38 -393.43,-317.77 -464.45,-304.33 -39.45,7.47 -1605.24,1177.96 -1795.27,1317.61 -279.44,205.34 -225.64,114.06 -225.65,551.68l0 1946.13c-0.08,163.89 -19.91,248.06 36.11,354.63l1444.41 5.69zm2417.45 -2612.07c29.99,28.92 23.54,-45.45 25.82,46.13l-6.4 2389.78c-96.74,38.31 -473.83,17.04 -603.3,17.02 -123.58,-0.02 -513.69,24.53 -601.7,-17.92 -40.33,-387.2 39.79,-1589.02 -14.78,-1831.49 -6.55,-24.54 1.25,-6.55 -18.06,-34.96 -146.47,-14.19 -1217.74,-23.24 -1284.95,10.96 -69.24,83.08 -33.6,320.17 -33.62,446.89 -0.02,83.85 13.57,1372.12 -10.4,1396.36 -45.48,28.33 -1083.88,30.39 -1180.73,5.37 -16.5,-174.65 -3.31,-1816.21 -3.38,-2136.94 -0.07,-341.91 -53.6,-249.32 240.66,-455.86 415.58,-291.68 847.69,-649 1259.4,-929.75l73.14 -58.38c71.99,-54.41 248.67,-195.56 305.83,-214.12 51.65,27.4 70.17,50.61 119.26,84.52l1733.21 1282.39z"/>
 </g>
</svg>
