<?xml version="1.0" encoding="UTF-8"?>
<!DOCTYPE svg PUBLIC "-//W3C//DTD SVG 1.1//EN" "http://www.w3.org/Graphics/SVG/1.1/DTD/svg11.dtd">
<!-- Creator: CorelDRAW 2019 (64-Bit) -->
<svg xmlns="http://www.w3.org/2000/svg" xml:space="preserve" width="170mm" height="170mm" version="1.1" style="shape-rendering:geometricPrecision; text-rendering:geometricPrecision; image-rendering:optimizeQuality; fill-rule:evenodd; clip-rule:evenodd"
viewBox="0 0 17000 17000"
 xmlns:xlink="http://www.w3.org/1999/xlink">
 <defs>
  <style type="text/css">
   <![CDATA[
    .str1 {stroke:white;stroke-width:1000;stroke-miterlimit:22.9256}
    .str0 {stroke:white;stroke-width:20;stroke-miterlimit:22.9256}
    .fil1 {fill:none}
    .fil0 {fill:#FEFEFE}
   ]]>
  </style>
 </defs>
 <g id="Capa_x0020_1">
  <metadata id="CorelCorpID_0Corel-Layer"/>
  <g id="_2197373673888">
   <path class="fil0 str0" d="M2844 11161.75l0 -1128.75c0,-785.54 594.81,-1375.66 1375.66,-1375.66l1446.21 0c635.8,0 1089.87,311.43 1294.37,751.49 271.24,583.67 -12.28,1551.98 151.84,1894.01 -98.2,65.76 -121.92,141.1 -282.19,141.1l-3703.7 0c-170.62,0 -282.19,-111.57 -282.19,-282.19zm2186.95 -4056.43c-277.75,0 -518.68,-72.7 -690.08,-227.03 -38.84,-34.97 -168.66,-195.31 -191.56,-231.72 -500.54,-795.99 684.2,-1795.97 1473.81,-1050.53 633.13,597.72 100.2,1509.28 -592.17,1509.28zm-1975.31 -881.84c0,930.91 530.27,1219.85 705.47,1481.48 -205.02,98.38 -870.57,160.15 -1361.3,790.38 -651.62,836.84 -543.46,1484.77 -543.46,2595.86 0,195.87 31.42,432.89 93.72,576.47 238.42,549.43 697.24,763.92 1352.49,763.92l3280.42 0c418.37,0 744.85,-54.01 1003.2,-231.37 214.42,-147.2 478.28,-452.54 478.28,-791.56 0,-889.97 101.71,-1685.22 -190.55,-2384.4 -52.98,-126.75 -106.41,-200.79 -176.73,-317.1 -148.48,-245.59 -539.62,-594.74 -785.15,-731.6 -229.77,-128.09 -474.33,-205.83 -752.33,-270.6 70.02,-95.56 438.79,-306.25 622.69,-858.78 438.42,-1317.24 -580.42,-2492.18 -1786.71,-2492.18 -1071.09,0 -1940.04,808.27 -1940.04,1869.48z"/>
   <path class="fil0 str0" d="M9334.3 5729.66c0,321.6 130.22,564.37 493.83,564.37l4761.9 0c736.85,0 627.53,-987.65 70.55,-987.65l-4832.45 0c-283.08,0 -493.83,215.78 -493.83,423.28z"/>
   <path class="fil0 str0" d="M9334.3 10950.11c0,321.6 130.22,564.37 493.83,564.37l4832.45 0c556.98,0 666.3,-987.65 -70.55,-987.65l-4761.9 0c-283.08,0 -493.83,215.78 -493.83,423.28z"/>
   <path class="fil0 str0" d="M9334.3 9256.99c0,295.19 193.38,493.83 423.28,493.83l4867.72 0c466.89,0 653.43,-534.93 327.79,-856.89 -94.72,-93.66 -256.43,-130.77 -433.61,-130.77l-4656.08 0c-297.84,0 -529.1,193.94 -529.1,493.83z"/>
   <path class="fil0 str0" d="M9334.3 7493.32c0,346.62 176.59,564.38 529.1,564.38l4656.08 0c825.38,0 734.51,-987.66 105.82,-987.66l-4867.72 0c-211.9,0 -423.28,211.39 -423.28,423.28z"/>
  </g>
  <rect class="fil1 str1" x="636" y="1265.87" width="15751.55" height="14564.58" rx="591.48" ry="973.44"/>
 </g>
</svg>
