<?xml version="1.0" encoding="UTF-8"?>
<!DOCTYPE svg PUBLIC "-//W3C//DTD SVG 1.1//EN" "http://www.w3.org/Graphics/SVG/1.1/DTD/svg11.dtd">
<!-- Creator: CorelDRAW 2019 (64-Bit) -->
<svg xmlns="http://www.w3.org/2000/svg" xml:space="preserve" width="81mm" height="77mm" version="1.1" style="shape-rendering:geometricPrecision; text-rendering:geometricPrecision; image-rendering:optimizeQuality; fill-rule:evenodd; clip-rule:evenodd"
viewBox="0 0 8100 7700"
 xmlns:xlink="http://www.w3.org/1999/xlink">
 <defs>
  <style type="text/css">
   <![CDATA[
    .fil0 {fill:#1766E5}
    .fil1 {fill:white}
   ]]>
  </style>
 </defs>
 <g id="Capa_x0020_1">
  <metadata id="CorelCorpID_0Corel-Layer"/>
  <g id="_1671471893488">
   <path class="fil0" d="M81.09 7654.71c1237.95,-60.83 2620.23,-5.93 3874.15,-5.93 646.76,0 1293.52,0 1940.27,0 595.16,0 1270.15,46.11 1657.49,-302.85 436.3,-393.09 509.65,-674.33 508.86,-1410.99 -1.94,-1806.87 -57.62,-4163.59 4.69,-5851.22 -1809.84,46.11 -3936.35,3.19 -5804.64,3.19 -669.72,0 -1171.78,-87.44 -1662.61,303.71 -398.02,317.19 -513.11,720.91 -512.73,1416.82 0.97,1780.21 62.47,4210.2 -5.48,5847.27z"/>
   <path class="fil1" d="M1385.3 5609.84l708.05 3.06c80.34,-1130.26 -267.83,-2776.22 412.89,-3174.39 260.18,-152.18 758.33,-253.5 968.66,0.54 -393.58,-72.83 -615.26,-38.78 -766.28,285.62 531.91,303.58 341.4,-84.98 658.03,979.6 242.78,816.24 569.71,1535.13 1438.58,1835.31 441.95,152.69 973.3,151.85 1400.87,-36.33 331.27,-145.8 652.14,-449.12 673.91,-945.11 23.81,-542.51 -343.12,-748.09 -720.51,-932.08 -333.69,-162.7 -1876.57,-574.31 -1006.14,-1361.94 94.56,-85.56 168.55,-95.26 252.77,-168.58 -508.04,47.84 -904.21,350.29 -952.25,842.18 -136.87,1401.25 1829.14,910.47 1714.06,1859.15 -51.37,423.44 -505.29,793.17 -1006.23,778.49 207.08,-111.61 420.09,-168.12 463.96,-427.96 -826.32,-60.24 -1218.95,-543.33 -1472.31,-1211.37 -129.16,-340.57 -204.84,-670.11 -329.12,-1011.68 -484.12,-1330.59 -2107.27,-919.35 -2384.3,33.42 -99.14,340.99 -85.06,2217.18 -54.64,2652.07z"/>
   <path class="fil1" d="M5246.88 2775.68c780.3,-200.66 841.74,167.98 1273.08,258.07l306.38 -526.36c-461.18,-200.64 -636.34,-467.62 -1374.06,-422.45 -155.31,189.83 -428.87,340 -205.4,690.74z"/>
  </g>
 </g>
</svg>
