<?xml version="1.0" encoding="UTF-8"?>
<!DOCTYPE svg PUBLIC "-//W3C//DTD SVG 1.1//EN" "http://www.w3.org/Graphics/SVG/1.1/DTD/svg11.dtd">
<!-- Creator: CorelDRAW 2019 (64-Bit) -->
<svg xmlns="http://www.w3.org/2000/svg" xml:space="preserve" width="51mm" height="16mm" version="1.1" style="shape-rendering:geometricPrecision; text-rendering:geometricPrecision; image-rendering:optimizeQuality; fill-rule:evenodd; clip-rule:evenodd"
viewBox="0 0 5100 1600"
 xmlns:xlink="http://www.w3.org/1999/xlink">
 <defs>
  <style type="text/css">
   <![CDATA[
    .fil0 {fill:#1766E5}
    .fil2 {fill:#606062}
    .fil1 {fill:white}
   ]]>
  </style>
 </defs>
 <g id="Capa_x0020_1">
  <metadata id="CorelCorpID_0Corel-Layer"/>
  <path class="fil0" d="M55.24 1544.06c246.06,-12.09 520.81,-1.17 770.05,-1.17 128.56,0 257.11,0 385.66,0 118.3,0 252.47,9.16 329.46,-60.2 86.72,-78.13 101.3,-134.04 101.14,-280.46 -0.38,-359.15 -11.45,-827.58 0.93,-1163.03 -359.73,9.16 -782.41,0.63 -1153.77,0.63 -133.11,0 -232.91,-17.38 -330.47,60.37 -79.11,63.05 -101.99,143.29 -101.91,281.62 0.19,353.85 12.42,836.85 -1.09,1162.24z"/>
  <path class="fil1" d="M314.47 1137.61l140.74 0.61c15.97,-224.66 -53.24,-551.82 82.07,-630.97 51.71,-30.24 150.73,-50.38 192.54,0.11 -78.23,-14.47 -122.3,-7.71 -152.31,56.77 105.72,60.35 67.85,-16.89 130.79,194.72 48.26,162.24 113.24,305.13 285.94,364.8 87.85,30.35 193.46,30.18 278.45,-7.23 65.84,-28.98 129.62,-89.27 133.95,-187.85 4.73,-107.84 -68.2,-148.7 -143.21,-185.27 -66.33,-32.34 -373,-114.15 -199.99,-270.71 18.79,-17 33.5,-18.93 50.24,-33.51 -100.98,9.51 -179.73,69.63 -189.27,167.4 -27.21,278.52 363.57,180.97 340.69,369.54 -10.21,84.17 -100.43,157.66 -200,154.74 41.16,-22.19 83.5,-33.42 92.22,-85.07 -164.25,-11.97 -242.29,-107.99 -292.65,-240.78 -25.67,-67.69 -40.71,-133.19 -65.42,-201.09 -96.22,-264.47 -418.85,-182.73 -473.92,6.65 -19.7,67.77 -16.9,440.7 -10.86,527.14z"/>
  <path class="fil0" d="M3649.15 281.86c-110.97,18.03 -169,111.5 -156.05,240.55 12.09,120.44 88.93,196.17 223,174.22 218.66,-35.81 201.16,-458.35 -66.95,-414.77z"/>
  <path class="fil2" d="M3861.6 901.25c-214.95,58.73 -175.97,469.54 100.53,406.01 216.4,-49.73 178.97,-482.38 -100.53,-406.01z"/>
  <path class="fil2" d="M2309.51 898.79c-219.4,57.31 -179.66,475.26 101.82,407.34 102.25,-24.67 146.17,-134.17 129.28,-251.99 -18.34,-127.96 -120.83,-184.16 -231.1,-155.35z"/>
  <path class="fil0" d="M3020.78 690.52l64.27 -0.81 84.86 -198.65 82.16 199.43 71.54 -0.88 122.07 -396.98c-91.24,-23.49 -90.24,54.7 -109.29,123.02 -17.14,61.44 -29.2,128.69 -49.35,188.35 -85.22,-146.57 -56.68,-329.09 -182.41,-314.98 -11.81,52.23 54.65,78.84 21.17,160.79 -17.52,42.87 -43.5,116.3 -65.49,153.81 -51.5,-120.91 -67.03,-303.84 -131.33,-316.08 -6.78,-1.29 -22.86,-1.48 -29.35,0.56 -25.9,8.14 -12.04,-0.6 -13.15,14.9 -0.32,4.49 123.75,359.9 134.3,387.52z"/>
  <path class="fil0" d="M2529.47 590.35c-41.7,15.68 -66.89,68.67 -162.33,40.88 -51.45,-14.97 -76.29,-65.46 -80.39,-129.43l265.94 -0.51c42.75,-283.52 -306.03,-285.96 -338.89,-65.25 -14.32,96.25 6.22,210.03 107.56,248.46 49.85,18.9 110.62,20.6 159.7,4.26 73.69,-24.54 70.26,-35.46 48.41,-98.41z"/>
  <path class="fil2" d="M3074.76 1268.03l8.88 31.83 67.82 0.07c7.91,-64.52 5.77,-331.47 -5.93,-388.83 -22.11,-10.14 -29.83,-15.43 -62.26,-12.75 -32.61,179.65 63.5,336.24 -89.94,350.64 -167.52,15.73 -70.08,-146 -108.65,-336.71 -22.17,-11.18 -28.91,-15.55 -61.98,-14.59 -9.37,40.63 -6.98,306.48 6.82,343.91 34.18,92.66 188.05,90.32 245.24,26.43z"/>
  <path class="fil0" d="M1887.23 324.19c-22.88,-29.46 -26.33,-37.09 -74.29,-38.67l1.07 402.75 73.53 -1.51c-2.44,-71.04 -0.73,-142.81 -0.92,-213.23 -0.24,-88.54 -1.78,-120.21 91.56,-127.87 95.55,-7.85 99.6,37.19 99.59,120.84 -0.01,72.34 1.86,147.33 -0.96,219.34l74.44 2.33c-2.81,-78.13 10.13,-285.77 -16.09,-343.08 -43.27,-94.58 -183.14,-75.76 -247.93,-20.9z"/>
  <path class="fil2" d="M4250.29 937.1c-1.26,-1.13 -2.89,-4.9 -3.38,-3.79 -0.49,1.12 -2.67,-3.02 -3.35,-3.82 -20.14,-23.77 -28.19,-37.26 -67.35,-26.09l0.2 393.67 70.88 2.27c4.15,-68.63 1.15,-147.33 0.82,-215.76 -0.41,-82.56 5.05,-120.05 93.75,-124.71 149.42,-7.85 78.02,143.32 98.38,340.63l69.71 0.18c5.29,-53.08 6.79,-298.58 -11.06,-337.92 -42.74,-94.17 -173.81,-82.1 -248.6,-24.66z"/>
  <path class="fil2" d="M4603.85 1212.77c-16.7,27.49 -20.13,27.01 -17.45,62.46 33.91,27.48 101.34,44.11 161.81,34.48 53.4,-8.51 101.5,-32.08 118.08,-87.91 45.43,-152.96 -144.13,-155.96 -204.22,-190.94 -9.71,-51.9 7.72,-77.66 65.36,-78.67 72.23,-1.28 78.07,34.62 121.28,43.39 12.32,-54.06 20.66,-67.86 -36,-89.37 -158.33,-60.09 -291.31,76.39 -199.8,172.24 54.88,57.48 182.6,34.46 185.21,110.66 1.65,48.01 -39.81,65.15 -84.99,63.73 -52.55,-1.65 -79.02,-26.15 -109.28,-40.07z"/>
  <path class="fil2" d="M1833.69 1212.18c-16.91,28.57 -20.37,26.51 -17.45,63.1 81.51,63.91 267.98,50.67 284.17,-72.4 9.62,-73.18 -29.61,-109.67 -84.45,-129.08 -62.11,-21.98 -133.52,-14.15 -126.9,-90 75.7,-80.33 141.64,2.93 189.86,11.56 12.45,-54.83 19.98,-67.97 -36.09,-88.94 -163.38,-61.1 -290.2,79.17 -199.97,172.36 54.72,56.52 182.74,34.55 185.27,110.39 1.59,47.42 -40.03,64.58 -84.8,63.74 -48.71,-0.91 -81.01,-24.61 -109.64,-40.73z"/>
  <path class="fil0" d="M2824.93 602.82c-35.29,30.41 -114,69.12 -124.93,-23.85 -7.39,-62.88 -0.53,-161.21 -1.44,-228.54l123.89 0.08 2.18 -62.18 -125.89 -0.64c0.39,-63.57 12.2,-135.67 -70.82,-118.28 -8.29,97.24 -8.69,331.6 -0.34,428.8 14.06,163.91 292.88,109.13 197.35,4.61z"/>
  <path class="fil2" d="M3471.89 1216.26c-5.76,2.64 -118.77,89.02 -129.04,-21.78 -6.18,-66.68 -1.08,-159.33 -0.95,-228.69l124.16 -3.18 2.33 -62.38 -126.12 0.58c-1.53,-73.87 13.54,-127 -74.07,-120.48 5.07,138.95 -9.83,301.47 2.17,435.76 5.97,66.91 50.64,97.19 117.41,96.24 30.49,-0.44 61.95,-6.48 84.53,-25.15 27.55,-22.79 12.61,-41.72 -0.42,-70.92z"/>
  <path class="fil1" d="M3654.37 344.44c-71.2,14.41 -94.07,88.59 -85.86,171.47 7.49,75.65 55.27,139.73 140.45,118.21 117.85,-29.77 115.72,-324.14 -54.59,-289.68z"/>
  <path class="fil1" d="M3873.48 963.17c-70.43,28.98 -79.17,109.99 -68.17,180.88 25.14,161.91 248.1,147.84 215.32,-81.8 -13.08,-91.61 -75.7,-128.48 -147.15,-99.08z"/>
  <path class="fil1" d="M2320.17 960.96c-62.26,24.24 -81.75,98.22 -69.88,182.12 10.41,73.47 60.42,126.25 142.57,102 121.37,-35.85 97.73,-350.47 -72.69,-284.12z"/>
  <path class="fil0" d="M4213.24 685.98l69.18 0.75c9.87,-50.3 2.17,-399.4 2.68,-500.77 0.3,-59.11 1.96,-115.85 -71.76,-95.88l-0.1 595.9z"/>
  <path class="fil2" d="M2740.79 1286.94c-15.28,-52.34 -43.74,23.74 -42.67,-105.14 0.83,-101.04 5.28,-367.47 -1.11,-438.18l-69.68 -34.88 -0.26 534.81c2.23,25.79 10.07,46.52 33.8,56.31 10.46,4.31 28.72,6.72 40,6 33.1,-2.12 27.79,-0.89 39.92,-18.92z"/>
  <path class="fil0" d="M4010.01 323.28c-19.22,-26.46 -17.57,-42.04 -70.63,-34.47l-1.61 396.96 69.1 0.82c28.8,-141.49 -74.63,-391.72 131.23,-319.87 74.29,-91.56 -62.67,-119.95 -128.09,-43.44z"/>
  <path class="fil1" d="M1082.03 574.27c155.1,-39.88 167.31,33.39 253.04,51.3l60.9 -104.62c-91.67,-39.88 -126.48,-92.95 -273.12,-83.97 -30.87,37.73 -85.24,67.58 -40.82,137.29z"/>
  <path class="fil0" d="M4561.52 683.9c-12.74,-25.03 -71.68,-86.44 -93.08,-112.75 -15.32,-18.82 -30.34,-35.19 -44.04,-54.32 -16.28,-22.73 -31.45,-33.54 -44.49,-56.44 31.33,-37.63 145.89,-126.73 158.01,-163.25 -78.77,-30.85 -105.99,22.72 -144.35,60.24 -141.93,138.81 -95.93,102.06 -7.55,218.68 45.44,59.96 101.61,147.13 175.5,107.84z"/>
  <path class="fil2" d="M3671.44 1297.1c2.88,-47.27 -19.57,-17.76 -33.85,-44.16 -13.74,-37.91 -6.01,-155.42 -6.01,-204.41 0,-91.47 25.57,-146.53 -74.79,-153.79 15.91,232.15 -51.37,468.23 114.65,402.36z"/>
  <path class="fil1" d="M2286.22 447.43l197.57 -0.1c-6.42,-69.49 -23.38,-110.31 -98.67,-108.2 -64.92,1.82 -89.73,47.35 -98.9,108.3z"/>
  <path class="fil2" d="M3580.86 755.35c-24.81,10.21 -27.89,38.75 -24.01,63.72 8.85,57.04 87.4,52.08 75.85,-28.81 -4.61,-32.28 -26.67,-45.26 -51.84,-34.91z"/>
  <path class="fil2" d="M4989.67 912.49c11.01,0 21.76,2.82 32.26,8.49 10.48,5.64 18.67,13.74 24.52,24.25 5.85,10.54 8.79,21.52 8.79,32.92 0,11.31 -2.88,22.2 -8.67,32.62 -5.76,10.45 -13.83,18.55 -24.25,24.31 -10.42,5.79 -21.31,8.67 -32.65,8.67 -11.37,0 -22.26,-2.88 -32.68,-8.67 -10.42,-5.76 -18.53,-13.86 -24.31,-24.31 -5.79,-10.42 -8.7,-21.31 -8.7,-32.62 0,-11.4 2.94,-22.38 8.82,-32.92 5.9,-10.51 14.09,-18.61 24.58,-24.25 10.5,-5.67 21.25,-8.49 32.29,-8.49zm0 10.87c-9.23,0 -18.23,2.37 -26.95,7.09 -8.73,4.72 -15.56,11.49 -20.49,20.27 -4.92,8.79 -7.38,17.93 -7.38,27.43 0,9.47 2.43,18.52 7.27,27.19 4.83,8.67 11.6,15.44 20.3,20.27 8.7,4.84 17.78,7.28 27.25,7.28 9.44,0 18.52,-2.44 27.22,-7.28 8.69,-4.83 15.46,-11.6 20.27,-20.27 4.81,-8.67 7.21,-17.72 7.21,-27.19 0,-9.5 -2.46,-18.64 -7.35,-27.43 -4.9,-8.78 -11.73,-15.55 -20.49,-20.27 -8.75,-4.72 -17.72,-7.09 -26.86,-7.09zm-28.82 91.01l0 -70.53 24.28 0c8.31,0 14.3,0.65 18.01,1.96 3.74,1.3 6.68,3.56 8.91,6.82 2.2,3.24 3.29,6.68 3.29,10.33 0,5.14 -1.83,9.65 -5.54,13.45 -3.69,3.83 -8.58,5.97 -14.7,6.44 2.49,1.04 4.51,2.28 6,3.74 2.85,2.76 6.32,7.42 10.45,13.98l8.6 13.81 -13.83 0 -6.29 -11.11c-4.93,-8.75 -8.94,-14.24 -11.97,-16.44 -2.07,-1.6 -5.1,-2.41 -9.11,-2.38l-6.7 0 0 29.93 -11.4 0zm11.4 -39.72l13.83 0c6.62,0 11.13,-0.98 13.53,-2.94 2.41,-1.96 3.63,-4.57 3.63,-7.78 0,-2.07 -0.6,-3.95 -1.76,-5.58 -1.16,-1.66 -2.76,-2.88 -4.81,-3.68 -2.08,-0.8 -5.87,-1.22 -11.45,-1.22l-12.97 0 0 21.2z"/>
 </g>
</svg>
